# xmcd
# 
# Track frame offsets:
#     150
#     15280
#     28675
#     43075
#     55957
#     71410
#     85062
#     99797
#     115837
#     129980
# 
# Disc length: 1932
# 
# Revision: 1
# Processed by: cddbd v1.5.2PL0 Copyright (c) Steve Scherf et al.
# Submitted via: BonkEnc v1.0
# 
DISCID=71078a0a
DTITLE=きかんしゃトーマス オールスターズ - きかんしゃトーマス オリジナルソングス 2
DYEAR=2000
DGENRE=Anime
TTITLE0=きょうそうしようよ
TTITLE1=たのしいきかんしゃ
TTITLE2=そらのヒーロー ハロルド
TTITLE3=ドナルドのガーガーあひる
TTITLE4=じこはおこるさ
TTITLE5=いつもきぼうを
TTITLE6=それゆけナイトトレーン
TTITLE7=ゆきのワンダーランド
TTITLE8=ぼくはきかんしゃトーマス
TTITLE9=きょうそうしようよ(カラオケ)
EXTD=YEAR: 2000
EXTT0=
EXTT1=
EXTT2=
EXTT3=
EXTT4=
EXTT5=
EXTT6=
EXTT7=
EXTT8=
EXTT9=
PLAYORDER=
